<?xml version="1.0" encoding="utf-8"?>
<!-- Generator: Adobe Illustrator 24.0.2, SVG Export Plug-In . SVG Version: 6.00 Build 0)  -->
<svg version="1.1" id="レイヤー_1" xmlns="http://www.w3.org/2000/svg" xmlns:xlink="http://www.w3.org/1999/xlink" x="0px"
	 y="0px" viewBox="0 0 670 142.3" style="enable-background:new 0 0 670 142.3;" xml:space="preserve">
<style type="text/css">
	.st0{fill:#221E1F;}
	.st1{fill:#8BC540;}
	.st2{fill:#7F9678;}
	.st3{fill:#4798C1;}
	.st4{fill:#6C3420;}
	.st5{fill:#7D92A9;}
	.st6{fill:#AEDEE4;}
	.st7{fill:url(#SVGID_1_);}
	.st8{fill:#FDE261;}
	.st9{fill:#863D34;}
	.st10{fill:#006836;}
	.st11{fill:#D5C7C0;}
	.st12{fill:#DACEC8;}
	.st13{fill-rule:evenodd;clip-rule:evenodd;fill:#006836;}
	.st14{fill:#D30000;}
</style>
<g>
	<g>
		<path class="st0" d="M432.6,74.6l4.4,3V78l-27.4,2.4l9.2,6.7c3.6,2.5,6.7,4.2,9.5,5.1c3,1,8.1,1.6,15.1,1.9v1l-16.2,1.4
			l-18.4-13.9v14.2c0,2.1-0.1,3.7-0.5,4.9c-0.1,0.7-0.4,1.2-0.7,1.2c-1-1.4-1.9-2.9-2.6-4.7c0.9-1.5,1.4-3.5,1.6-6v-10
			c-4.5,4-9.6,7.6-15.2,10.8c-6.2,3.4-11.4,5.6-15.9,6.8l-0.4-1c5.7-2.4,11.2-5.2,16.3-8.5c5-3.2,8.8-6.3,11.7-9.3l-9.8,0.9
			c-4.9,0.5-8.6,1-11.2,1.5l-3.7-2.6l28-2.4c-0.1-2.9-0.5-5.2-1.2-7.3h0.7l4.7,3.4c-0.7,0.5-1.1,1.7-1.5,3.7l10.8-1
			C426.2,76.3,430.4,75.6,432.6,74.6z M435.6,32.7l4.4,3V36l-23.8,1.9c-1.1,2.6-2.2,5.3-3.4,8.1l-1-1c0.9-2.5,1.6-4.9,2.4-7L401,39
			c0.1,1.2,0.4,2.5,0.4,4c0,1.4-0.2,2.2-0.6,2.4c-1.1-1.4-2.1-2.6-3.1-4c0.2-0.7,0.4-1.4,0.4-2.1l-6.2,0.5c-5.3,0.5-9.3,1-12.2,1.5
			l-3.7-2.7l22.4-1.7c0-0.4,0-0.6,0-1c0-1.9-0.4-4-1-6.2c-0.4-1.2-1-2.4-2-3.2l0.7-0.6l5.1,3.4c-0.5,1.5-0.7,2.7-0.7,4
			c0,0.4,0.1,1.5,0.2,3.5l14.2-1.1c1.1-4.2,1.9-8.2,2.4-11.7l0.7-0.4l3,5h-1c-0.9,2.1-1.7,4.5-2.7,6.8l4.5-0.4
			C428.5,34.5,433.3,33.7,435.6,32.7z M378,65.5l7.7,4c1.4-2,4-6.3,7.7-13.1l0.7,0.2l-7.3,17.8c-0.1,0.1-0.2,0.2-0.4,0.2
			c-0.1,0-0.2-0.1-0.5-0.4l-8.6-8.7L378,65.5z M381.4,45.9l8.5,5.3c1.1,0.7,1.6,1.5,1.6,2c0,1-0.4,2.2-1.2,3.7h-0.4
			c-2-2.9-5-6.3-9.1-10.3L381.4,45.9z M405.1,40.4l3.7,4.7l-1,1c-0.7,1.4-1.5,2.7-2.4,4.4l8.6-1l1.7-2.6l3.7,3
			c-1.4,1.2-2.1,2.5-2.4,3.7v15.8c-0.5,3.1-1,4.7-1.4,4.7c-0.4,0-1.1-1.7-2.2-5.2l-13.8,1.7v0.1c0,1.5,0,2.9-0.1,4.2
			c0,0.5-0.1,0.7-0.5,0.7l-3-4.4c0.6-1.4,0.9-2.9,1-4.6l-0.7-14.4c-0.1-1.5-0.4-3-0.7-4.7l0.7-0.4c1.2,2,2,3.4,2.2,4.2l5.1-0.6
			c0.9-3.2,1.4-5.6,1.4-7.3c0-0.9-0.1-1.7-0.2-2.4L405.1,40.4z M399.7,68.4l9.2-1.1c1.1-0.1,2.4-0.6,3.7-1.4l1.7,1.5
			c0.5-1.1,0.7-2.6,1-4.6L415,51.2l-16,2.1l0.4,6.7l8-1.2c1.1-0.1,2.4-0.6,3.7-1.4l2.6,2.4v0.4L399.4,62L399.7,68.4z M420.6,58.8
			l12.2,4.7c2.6,1.2,4,2.6,4,4.2c0,2.2-0.1,3.4-0.4,3.4h-0.7c-0.2-0.1-0.6-0.4-1.1-1c-3.4-3.4-8.1-6.8-14.3-10.3L420.6,58.8z
			 M432.3,45.9c-3.4,3.2-6.8,6.3-10.7,9.3l-1-1.4c3.1-2.9,5.5-5.3,7-7.3c1.4-2,2.4-3.9,3.1-5.3l3.7,5l-0.4,0.6
			C433.3,46.1,432.8,45.9,432.3,45.9z"/>
	</g>
	<g>
		<path class="st0" d="M476.7,32.4l3.7,2.7v0.2l-13.7,2l2.6,5.6c-1,0.4-1.7,0.7-2,1c-1.7,4.4-3.5,8.2-5.3,11.4
			c0.4,0.5,0.6,1,0.9,1.5l10-2.4l2.5-3.1l3.4,3c-1.5,1.4-2.4,2.5-2.4,3.4l-1.5,13.7l2.6,2.1V74l-13.7,1.7V78c-0.2,5.1-0.6,7.6-1,7.6
			l-3-6c0.7-1,1.1-2.7,1.2-5.3V59.9c0-0.7,0-1.4-0.1-2.1l-0.1,0.1c-2.6,4.2-6.2,8.8-10.8,13.9l-0.6-0.6c4.9-6.8,8.7-13.4,11.7-19.9
			c2.7-5.7,4-10,4-12.8l0.1-0.7l-4.2,0.6c-2.1,0.4-3.9,0.7-5,1.1l-3-2.4l18.2-2.9C473.9,33.8,475.8,33.2,476.7,32.4z M463.7,73.3
			l6.3-1.1c0.7-0.1,1.4-0.2,2.1-0.5l1.4-14.9l-10,2.4c0,0.4,0.1,0.7,0.1,1.1L463.7,73.3L463.7,73.3z M511.1,27.4l4.4,3v0.4l-9.7,1.4
			v25l1.5-0.1c3.7-0.5,6.8-1.1,9.2-2.1l3.7,3v0.4l-14.4,1.9v27.6c0,7.8-0.4,12.4-1,13.7c0,0.2-0.2,0.4-0.6,0.4
			c-1.1-1.7-2.2-3.7-3.4-6c1.2-2.4,1.9-5.3,2.1-9.1V60.4l-11.2,1.4c-0.2,3.7-0.7,7.3-1.2,10.6c-0.7,5-2.6,10-5.3,14.9
			c-3,5.5-7.7,10.2-14.1,14.4l-0.4-0.7c5.6-4.9,9.7-9.8,12.2-14.9c2.1-4.5,3.7-8.8,4.5-13.3c0.6-3.5,1-7.1,1.2-10.6
			c-3.1,0.4-5.6,0.9-7.6,1.4l-4-2.7l11.8-1.5c0.1-2.9,0.2-5.7,0.2-8.6V34.4c-2.4,0.5-4.1,0.9-5.3,1.2L480,33l23.9-3.4
			C507.5,29.1,509.9,28.3,511.1,27.4z M502.9,57.6V32.4l-10.7,1.5v16.9c0,2.9-0.1,5.5-0.2,8.1L502.9,57.6z"/>
	</g>
	<g>
		<path class="st0" d="M259.6,44.9l12.4-1.2c5.5-0.5,10-1.2,13.3-2.2l3.7,3v0.4L252,48.2l2.6,2.9c-0.9,1.4-1.5,3.4-2.1,6.1
			c-0.4,1.7-0.7,3.5-1,5.1l18.4-2.2l2.7-3l3.7,3.4c-1.6,1.2-2.6,2.5-2.7,3.7c-1.6,12.3-3.2,21.3-4.9,27.1c-1.7,6.3-2.9,9.5-3.5,9.5
			c-0.7,0-1.2-0.1-1.5-0.4c-1.6-2-5.8-5.5-12.6-10.6l0.7-0.6l12.4,6.3c2.7-7.1,5-18,6.7-33L256.7,64c-1.2,0.2-2.4,0.6-3.4,1l-2-1.4
			c-1.5,7-3.2,12.3-5.1,16.3c-2,4.1-4.6,8-7.8,11.8c-4.1,4.7-7.7,8-10.8,9.8l-0.4-0.7c5.1-4.4,9.5-9.5,13.1-15.1
			c2.7-4.5,5.2-10.6,7.3-18c1.9-7.3,2.7-12.9,2.7-16.8c0-0.9,0-1.6-0.1-2.4l-6.2,0.6c-4.7,0.4-8.6,0.9-11.4,1.5l-4-2.6l28.1-2.6
			L259.6,44.9z"/>
		<path class="st0" d="M257.5,43.2c0,0-3.6-6-2.6-10.6s3.6-7.8,4.7-10.1c1.2-2.5-0.4-7.1-0.4-7.1s4.5,2.5,5.2,5.8
			C265.2,24.8,269.2,34.7,257.5,43.2z M261.3,19.9c0,0,0.1,2.2,0.1,3.2c0,0.7-0.4,2.9-0.7,4.2c-0.2-0.4-0.5-0.9-0.7-1
			c-0.4-0.2-1.2-0.6-1.2-0.6s0.6,0.6,1,1c0.4,0.4,0.6,1.9,0.6,1.9c-0.2,0.5-1.5,3.2-2,5.8c0,0.2-0.1,0.6-0.1,0.9
			c-0.2-0.5-0.6-1.5-0.9-1.9c-0.4-0.5-1.9-1.7-1.9-1.7s1.1,1.6,1.5,2.2c0.2,0.5,1,1.9,1.1,2.4c-0.2,2.2-0.1,4.5-0.1,4.5s1-5,1.1-6.3
			c0-0.6,0.4-1.6,0.7-2.7c0.5-0.5,1.5-1.6,2.2-1.9c1-0.2,2.1-1,2.1-1s-2.2,0.1-3,0.7c-0.2,0.2-0.6,0.5-0.9,0.7
			c0.4-1.1,0.7-2.2,1.1-3.4C262.2,24.1,261.3,19.9,261.3,19.9z"/>
	</g>
	<g>
		<path class="st0" d="M550.4,43.7h0.7l2,5.3c-0.9,0.2-1.4,0.5-1.6,1c-3.1,3.5-6,6.3-8.5,8.2c-2.9,2.4-7.2,5.1-12.9,8.2l-0.4-0.6
			c6.7-4.6,11.7-8.6,14.9-12.2C547.5,50.6,549.3,47.3,550.4,43.7z M570.5,64.1l3.1,3.1c-1.4,0.6-2,1.6-2.1,2.6l-1,19.2
			c0,4,2.6,6,8,6c5.6,0,8.5-0.6,8.5-1.7l0.7-13.1h1c0.4,6.5,1.1,12.2,2.4,17c-2.4,0.2-6.6,0.4-12.6,0.4c-7.1,0-10.6-2.9-10.6-8.7
			l1-20.2l-13.8,1.5c-2,7.6-4.4,13.1-7.2,16.2c-3.9,5.3-9.5,10.1-16.5,14.4l-0.6-0.6c6.3-4.7,11.2-9.5,14.4-14.2
			c3-3.9,5.2-9,6.7-15.3l-9.5,1c-1,0.2-2.2,0.7-3.7,1.4l-3.4-2.6l17-2.1c0,0,0.1,0,0.1-0.1c1.1-4.7,1.6-8.6,1.6-11.6
			c0-1.4-0.1-2.7-0.4-4.2l5.1,4.6c-0.7,0.7-1.2,1.6-1.4,2.4c-0.5,3.1-1.1,6-1.7,8.6l12.8-1.5L570.5,64.1z M560.5,39l20.5-1.7
			l2.4-2.9l4.7,3.7c-2.7,1.6-6.5,6-11.4,13.1l-0.7-0.4l5.1-11.2l-15.6,1.2l2.4,2.1c-0.4,0.5-0.6,1.4-0.6,2.4v8.6
			c0,1.2,1.4,1.7,4.2,1.7c4.4,0,8.5-0.2,12.3-0.6l2.4,2.4v0.4c-4.2,0.5-9.6,0.7-16.3,0.7c-3.5,0-5.1-1.1-5.1-3.2V43.9
			c0-0.9-0.2-1.7-0.7-2.7l-26.9,2.2c-0.1,0.9-0.2,1.9-0.5,2.9c-0.6,2.5-1.4,4.6-2.4,6.2c-0.6,1.1-1.1,1.7-1.5,1.7
			c-0.1,0-0.7-1.4-1.7-4c3.4-4,5.1-9.2,5.3-15.7h0.6c0.2,1.7,0.4,3.2,0.4,4.2c0,0.7,0,1.5-0.1,2.4l20.5-1.7L560.5,39z"/>
		<path class="st1" d="M556,38.1c0,0-1.4-6.8,1.1-10.8c2.5-4,6.1-6.2,8-7.8c2.1-1.9,2-6.8,2-6.8s3.4,3.9,3,7.3
			C569.6,23.5,570,34,556,38.1z M567.7,17.5c0,0-0.6,2.1-1,3.1c-0.2,0.7-1.4,2.5-2.1,3.7c-0.1-0.4-0.2-1-0.4-1.2
			c-0.2-0.4-0.9-1-0.9-1s0.4,0.7,0.6,1.2c0.2,0.5,0,1.9,0,1.9c-0.4,0.4-2.5,2.5-3.9,4.9c-0.1,0.2-0.2,0.5-0.5,0.9
			c0-0.6-0.1-1.6-0.2-2c-0.1-0.6-1.1-2.4-1.1-2.4s0.5,2,0.6,2.6s0.2,2.1,0.2,2.6c-1,2-1.7,4.1-1.7,4.1s2.6-4.2,3.2-5.6
			c0.2-0.5,0.9-1.4,1.6-2.2c0.6-0.4,2-1,2.7-1c1,0,2.2-0.2,2.2-0.2s-2.1-0.6-3-0.4c-0.4,0.1-0.7,0.2-1.1,0.4
			c0.7-0.9,1.5-1.9,2.1-2.9C567,21.7,567.7,17.5,567.7,17.5z"/>
	</g>
	<g>
		<path class="st0" d="M315.8,57.9l15.8-2.1V35.7c0-3.1-0.6-6.1-2-9l0.7-0.6l6,4.7c-1.1,1.6-1.7,3.2-1.7,5v19.7l8.1-1
			c4.4-0.7,7.3-1.6,9-2.6l4.2,3v0.4l-21.4,2.7v15.3l6.3-0.9c4.1-0.7,7-1.5,8.5-2.4l4.4,3v0.2l-19.2,2.5v17.5l12.1-1.1
			c6.6-0.7,11.1-1.5,13.3-2.6l4.4,3.1v0.2L318.1,97c-5.1,0.5-9,1-11.7,1.6l-3.7-2.6l28.7-2.5V76.1l-7,0.9c-3.2,0.5-5.7,1-7.5,1.5
			l-3.7-2.6l18-2.4V58.3l-6.5,0.9c-3.5,0.5-6.1,1-7.8,1.6l-2.1-1.5L315.8,57.9z"/>
		<g>
			<path class="st2" d="M317.2,33.3c-4.4,2.2-2.4,9.2-2.7,13.1c-0.6,4.7-3.5,8.7-5.6,12.4c2.5-3.7,6.5-7.2,7.2-11.3
				c-0.2,4.5-1.7,9-3.4,13.2c-1.5,4.9-5.2,8.3-6.6,12.9c5-6,9.6-14.4,11.9-22.1c0.9-2.9,5-19.2-0.6-18.2L317.2,33.3z"/>
		</g>
	</g>
	<g>
		<path class="st0" d="M150.7,82.3l8,7.7c2-5.1,5.5-16.9,10.7-35.5l1,0.4l-9.8,41.8c-0.1,0.5-0.2,0.7-0.5,0.7
			c-0.1,0-0.2-0.2-0.5-0.6L150,82.6L150.7,82.3z M188.8,82.6c-1.6,3.5-3.7,6.3-6.5,8.7c-3.9,3.5-9.6,7.1-17,10.4l-0.6-0.7
			c6.8-3.7,11.9-7.3,15.6-10.6c3.1-3,5.2-6.2,6.2-9.6l-6.6,0.7c-3.5,0.5-6.2,0.9-8.1,1.4l-3-2.4l18.4-2c0.6-2,1-4.1,1.1-6.5
			l-5.7,0.6c-2.7,0.4-4.7,0.7-6.2,1.1l-3-2.4l15.1-1.7c0-0.5,0-1,0-1.6v-5.6l-10.3,1.1c0,1.5,0,2.7-0.1,4.1c0,0.5-0.1,0.6-0.5,0.6
			l-3-4.4c0.6-1.4,0.9-2.9,1-4.6l-0.6-8.1c-0.1-1.5-0.4-3-0.7-4.7l0.7-0.4c1.5,2.5,2.2,4,2.4,4.7v0.1l26.1-3.4l2-2.5l3.1,3
			c-1.4,1.1-2.1,2-2.1,2.6l-1.7,7.6l2.1,1.7v0.6l-15.1,1.5v6c0,0.5,0,0.9,0,1.2l4.5-0.5c3.5-0.5,5.7-1,7-1.7l3.7,2.6v0.4l-15.3,1.6
			c-0.1,2.4-0.4,4.5-1,6.5l8.6-0.9c4.6-0.6,7.7-1.4,9.3-2.2l3.7,2.7v0.4l-22.4,2.2v0.1L188.8,82.6z M195.7,39.9L183,41.3
			c0.1,1.5,0.2,3.2,0.4,5.1c0,1.4-0.2,2.2-0.6,2.4c-1.1-1.4-2.1-2.6-3.1-4c0.2-1,0.5-2.1,0.6-3.1c-3.6,0.5-6.3,1-8.2,1.5l-3.1-2.4
			l11.4-1.2v-0.1c0-2.4-0.4-5-1-7.8c-0.4-1.6-1-3-2-4.1l0.6-0.7l5.1,3.4c-0.5,1.4-0.6,2.7-0.6,4c0,0.6,0.1,2.2,0.4,5.1l13.6-1.5
			l2.4-0.2l2.6-0.4c4.9-0.7,8.2-1.5,10-2.4l3.7,2.6v0.4l-17.2,2L195.7,39.9z M178,61.7l10.6-1v-8.8l-11.2,1.5L178,61.7z M191.6,51.5
			v9l8.7-0.9c0.6-0.1,1.2-0.2,1.9-0.5l1.6-9.1L191.6,51.5z"/>
		<path class="st3" d="M193.9,82.2c0,0,12.1,5.1,14.8,8c4.6,5,8.3,11.1,4.6,14.2c-5.1,4.2-11.1-7.5-13.3-12.1
			C197.9,87.7,193.9,82.2,193.9,82.2z"/>
		<g>
			<path class="st2" d="M196.8,46.2c-2.6-3.2,1.4-8,2.2-11.1c1.1-3.9,0.2-8-0.1-11.7c0.6,3.7,2.6,7.8,1.9,11.2
				c1.4-3.6,1.7-7.6,1.9-11.4c0.5-4.2-1.2-8.3-0.7-12.3c1.9,6.3,2.6,14.6,1.9,21.3c-0.4,2.5-2.6,16.7-6.6,13.9L196.8,46.2z"/>
		</g>
		<g>
			<path class="st4" d="M163.6,41.9c0,3.5-2.9,6.3-6.2,6.3c-3.5,0-6.2-2.9-6.2-6.3s2.9-6.2,6.2-6.2
				C160.8,35.7,163.6,38.5,163.6,41.9z"/>
		</g>
		<g>
			<path class="st4" d="M162.9,62.2c0,3.5-2.9,6.3-6.2,6.3c-3.5,0-6.2-2.9-6.2-6.3s2.9-6.2,6.2-6.2
				C160.1,55.8,162.9,58.7,162.9,62.2z"/>
		</g>
	</g>
	<g>
		<path class="st0" d="M610.4,44.7l2.9,7.1l15.3-3l2.5-3l3.4,3c-1.5,1.4-2.4,2.5-2.4,3.4l-1.9,13.7l2.6,2v0.4l-19.7,2.9
			c-0.4,5.5-1.2,10.2-2.4,14.2c-1.6,6.3-4.2,11.7-7.7,16.2l-1-0.7c3.1-5.1,5.2-10.8,6.6-17.2c1.2-5.1,1.7-12.2,1.7-21.4v-8.5
			c0-2.9-0.4-5.7-1-8.7L610.4,44.7z M632.4,31.1l3.7,2.6V34l-21.9,3.5c-2.4,0.5-4.2,1-5.6,1.5l-3-2.4l20.5-3.5
			C629.2,32.7,631.3,31.9,632.4,31.1z M613.1,68.5l12.3-2c0.6-0.1,1.4-0.4,2.1-0.6l1.6-14.9l-15.8,3.1v8.1
			C613.4,64.4,613.3,66.5,613.1,68.5z M655.8,56.1L643,57.6c-0.2,9.5-1.6,17.3-3.9,23.8c-2.4,7.7-6.2,14.4-11.4,20l-1-0.7
			c5-6.3,8.5-13.3,10.6-21.1c2-6.3,2.9-15.1,2.9-26.4V41.4c-0.1-2.9-0.5-5.7-1-8.7l1-0.4l2.6,6.5c10.3-4.1,16.8-7.7,19.2-10.8
			l0.6-0.6l3.5,5.6h-1c-6.5,2.1-13.7,4.6-21.8,7.3v12.7c0,0.7,0,1.5,0,2.1l19.4-2.4c1.2-0.1,2.5-0.6,4-1.4l3.4,2.6v0.4l-11.3,1.4
			L655.8,56.1z"/>
		<g>
			<path class="st5" d="M657.9,57.1c5.8-4.7,4.2,16.4,4.2,19.5c-0.6,10.6-0.9,21.3-3,31.6c-1.5-17.7-2.2-30.4-2.2-47
				C657.1,59.3,657.9,57.1,657.9,57.1z"/>
		</g>
	</g>
</g>
<g>
	<polygon class="st6" points="43.4,131 8,101.3 0,55.8 23.1,15.8 66.5,0 109.9,15.8 133,55.8 125,101.3 89.6,131 	"/>
	
		<radialGradient id="SVGID_1_" cx="66.5" cy="66.5" r="60.9517" gradientTransform="matrix(1 0 0 -1 0 132)" gradientUnits="userSpaceOnUse">
		<stop  offset="0" style="stop-color:#FFFFFF"/>
		<stop  offset="1" style="stop-color:#EFECEA"/>
	</radialGradient>
	<polygon class="st7" points="45.2,126 12.5,98.6 5.1,56.5 26.4,19.6 66.5,5 106.6,19.6 127.9,56.5 120.5,98.6 87.8,126 	"/>
	<path class="st8" d="M45.2,127.4V126l0.9-1l-0.9,1V127.4h-0.5L11.2,99.3l-7.6-43l21.8-37.8l41-14.9l41,14.9l21.8,37.8l-7.6,43
		l-33.4,28.1H45.2L45.2,127.4z M87.3,124.6l31.9-26.8l7.2-41l-20.8-36.1L66.5,6.4L27.3,20.7L6.5,56.8l7.2,41l31.9,26.8L87.3,124.6
		L87.3,124.6z"/>
	<path class="st9" d="M77.5,59.8c0,2.2-1.7,3.9-3.9,3.9c-2.2,0-3.9-1.7-3.9-3.9s1.7-3.9,3.9-3.9C75.7,55.9,77.5,57.6,77.5,59.8z"/>
	<path class="st9" d="M78.4,70.8c0,1.8-1.4,3.2-3.2,3.2c-1.8,0-3.2-1.4-3.2-3.2c0-1.8,1.4-3.2,3.2-3.2C76.9,67.6,78.4,69,78.4,70.8z
		"/>
	<g>
		<path class="st3" d="M79.1,76.2c-1.3,4.6-7.7,3.9-9.6,7.8c-2.7,6.1,5,7.1,8.4,3.5c2.9-2.9,4.3-8.4,1.5-11.8
			c-0.1-0.1-0.1,0-0.2,0.1L79.1,76.2z"/>
	</g>
	<g>
		<path class="st10" d="M93.8,55.1c-5.2-1.3-5.1-6-5.8-10.2c1.5,2.2,4.5,2.5,5.9,4.8c0.8,1.2,2.1,5.1-0.3,5.4"/>
	</g>
	<g>
		<path class="st10" d="M100.1,55.1c5.2-1.3,5-6,5.8-10.2c-1.5,2.2-4.5,2.5-5.9,4.8c-0.8,1.2-2.1,5.1,0.3,5.4"/>
	</g>
	<g>
		<path class="st10" d="M63.7,103.7c-4.7-1.5-4.2-5.8-4.6-9.8c1.3,2.1,3.9,2.6,5.1,4.8C64.8,99.9,65.8,103.5,63.7,103.7"/>
	</g>
	<g>
		<path class="st10" d="M41.2,98.6c-4-2.8-2.4-6.8-1.6-10.7c0.6,2.4,3,3.6,3.5,6.1C43.4,95.3,43.3,99,41.2,98.6"/>
	</g>
	<g>
		<path class="st10" d="M25.7,84.4c-2.6-4.2,0.6-7.2,2.8-10.4c-0.4,2.4,1.3,4.5,0.7,7c-0.3,1.3-1.9,4.7-3.7,3.3"/>
	</g>
	<g>
		<path class="st10" d="M20.5,58.9c1.3-4.7,5.6-4.5,9.5-5.1c-2,1.4-2.4,4.1-4.6,5.3c-1.1,0.7-4.7,1.8-5-0.4"/>
	</g>
	<g>
		<path class="st10" d="M60.8,44.3c1.3-4.7,5.6-4.5,9.5-5.1c-2,1.4-2.4,4.1-4.6,5.3c-1.1,0.7-4.7,1.8-5-0.4"/>
	</g>
	<g>
		<path class="st10" d="M49.1,43.1c4.9-0.4,6.1,3.7,8,7.2c-2-1.4-4.6-0.9-6.6-2.5c-1-0.8-3.3-3.8-1.3-4.8"/>
	</g>
	<g>
		<path class="st10" d="M20.2,67.9c-0.7-4.9-5-5.2-8.8-6.2c1.8,1.6,1.9,4.3,3.9,5.8c1,0.8,4.4,2.4,5,0.2"/>
	</g>
	<g>
		<path class="st10" d="M31.5,91.4c-3.1-3.8-7-1.8-10.8-0.7c2.4,0.4,3.9,2.7,6.4,2.9c1.3,0.2,5-0.3,4.4-2.4"/>
	</g>
	<g>
		<path class="st10" d="M53.7,103.2c-4.4-2.2-7.1,1.2-10.1,3.8c2.4-0.6,4.7,0.9,7,0.1C51.9,106.7,55.1,104.8,53.7,103.2"/>
	</g>
	<g>
		<path class="st3" d="M97.9,81.6c0.2,6.5,12,15.6,15.2,10.2c3.4-5.9-10.7-6.3-15-10.4L97.9,81.6z"/>
	</g>
	<path class="st10" d="M96.5,72.6c0,0-1.4-2.2-3.7-2.2c-2.2,0-3.3,0.5-4.7,0.4c-1.4-0.1-3-0.5-3-0.5s2.3,2.4,4.7,2.7
		C92.2,73.3,94.3,73.8,96.5,72.6z"/>
	<path class="st10" d="M97.2,72.6c0,0,1.4-2.2,3.7-2.2c2.2,0,3.3,0.5,4.7,0.4c1.4-0.1,3-0.5,3-0.5s-2.3,2.4-4.7,2.7
		C101.5,73.3,99.3,73.8,97.2,72.6z"/>
	<path class="st10" d="M95.6,77.7c0,0-1.7-2.7-4.5-2.7c-2.7,0-4,0.7-5.8,0.5c-1.7-0.1-3.7-0.7-3.7-0.7s2.8,2.9,5.8,3.3
		C90.4,78.5,93,79.1,95.6,77.7z"/>
	<path class="st10" d="M96.5,77.7c0,0,1.7-2.7,4.5-2.7c2.7,0,4,0.7,5.8,0.5c1.7-0.1,3.7-0.7,3.7-0.7s-2.8,2.9-5.8,3.3
		C101.7,78.5,99.1,79.1,96.5,77.7z"/>
	<g>
		<path class="st11" d="M85.8,65.9c0,0,0.4-7.5,10.8-7.8c11.2-0.3,10.8,7.9,10.8,7.9s-5.4-1.7-10.6-1.6
			C92.1,64.5,85.8,65.9,85.8,65.9z"/>
		<g>
			<g>
				<g>
					<g>
						<path class="st12" d="M85.8,65.9C85.7,65.9,85.7,65.9,85.8,65.9L85.8,65.9L85.8,65.9z"/>
						<path class="st12" d="M85.9,65.9L85.9,65.9C86,65.9,85.9,65.9,85.9,65.9z"/>
						<path class="st12" d="M86.7,65.8c-0.2,0.1-0.4,0.1-0.5,0.1C86.4,65.9,86.6,65.8,86.7,65.8z"/>
						<polygon class="st12" points="86.4,65.8 86.4,65.8 86.5,65.8 						"/>
						<polygon class="st12" points="86.3,65.8 86.3,65.8 86.6,65.7 						"/>
						<path class="st12" d="M87.3,65.6h-0.2c-0.2,0,0.1-0.1,0,0c-0.2,0-0.1,0.1-0.3,0.1C86.8,65.7,87.2,65.6,87.3,65.6
							C87.4,65.7,87.2,65.7,87.3,65.6z"/>
						<path class="st12" d="M98.2,64.3L98.2,64.3L98.2,64.3z"/>
						<path class="st12" d="M101.2,64.6L101.2,64.6C101.3,64.6,101.3,64.6,101.2,64.6L101.2,64.6z"/>
						<path class="st12" d="M96.3,64.4L96.3,64.4C96.2,64.4,96.3,64.4,96.3,64.4z"/>
						<path class="st12" d="M103.6,59.5L103.6,59.5L103.6,59.5L103.6,59.5L103.6,59.5z"/>
						<path class="st12" d="M104.6,65.1L104.6,65.1L104.6,65.1z"/>
						<path class="st12" d="M95.2,64.4C95.3,64.4,95.3,64.4,95.2,64.4L95.2,64.4L95.2,64.4L95.2,64.4z"/>
						<path class="st12" d="M100.3,64.4L100.3,64.4C100.3,64.4,100.3,64.4,100.3,64.4z"/>
						<path class="st12" d="M90.1,65.2C90.2,65.2,90.2,65.2,90.1,65.2C90.1,65.2,90.1,65.2,90.1,65.2z"/>
						<path class="st12" d="M91.1,65L91.1,65L91.1,65z"/>
						<path class="st12" d="M91.8,64.9L91.8,64.9L91.8,64.9z"/>
						<path class="st12" d="M90.2,65.2c0.1,0,0.1,0,0.2,0l0,0c0.1,0,0.2,0,0.2,0l0,0c0,0-0.1,0-0.2,0C90.3,65.1,90.3,65.1,90.2,65.2
							z"/>
						<path class="st12" d="M98.2,64.3C98.2,64.3,98.1,64.3,98.2,64.3L98.2,64.3z"/>
						<path class="st12" d="M97.3,64.4L97.3,64.4L97.3,64.4z"/>
						<path class="st12" d="M93.8,64.5L93.8,64.5L93.8,64.5z"/>
						<path class="st12" d="M97.5,64.4L97.5,64.4C97.4,64.4,97.4,64.4,97.5,64.4z"/>
						<path class="st12" d="M94.8,64.5L94.8,64.5L94.8,64.5z"/>
						<path class="st12" d="M89.6,59.7c0.1,0,0.1,0,0.2-0.1C89.9,59.5,89.5,59.8,89.6,59.7C89.7,59.7,89.6,59.7,89.6,59.7L89.6,59.7
							C89.8,59.7,89.6,59.8,89.6,59.7z"/>
						<path class="st12" d="M102.9,59.1L102.9,59.1C102.9,59,102.9,59,102.9,59.1c-0.2-0.1,0,0-0.2,0
							C102.7,59,102.7,59.1,102.9,59.1C102.7,59,102.8,59,102.9,59.1z"/>
						<path class="st12" d="M102.8,59.1L102.8,59.1L102.8,59.1L102.8,59.1L102.8,59.1z"/>
						<path class="st12" d="M91.8,58.7L91.8,58.7L91.8,58.7z"/>
						<path class="st12" d="M104.3,65.4L104.3,65.4L104.3,65.4z"/>
						<path class="st12" d="M104.3,59.9C104.3,59.9,104.4,59.9,104.3,59.9C104.4,60,104.4,60,104.3,59.9L104.3,59.9z"/>
						<path class="st12" d="M99,58.4c0.1,0,0,0-0.2,0h-0.1C98.9,58.4,99,58.4,99,58.4z"/>
						<polygon class="st12" points="89.5,59.8 89.5,59.8 89.6,59.8 						"/>
						<path class="st12" d="M95.8,58.4L95.8,58.4L95.8,58.4z"/>
						<path class="st12" d="M103.4,59.4l0.4,0.2l-0.1-0.1C103.6,59.5,103.4,59.4,103.4,59.4z"/>
						<path class="st12" d="M100.8,58.7L100.8,58.7c0.4,0.1,0.9,0.2,1.2,0.3c0.4,0.2,0.3,0.1,0.7,0.3l0,0c1.4,0.6,2.6,1.6,3.4,2.8
							l0,0c0.7,1.2,1.1,2.6,1.1,3.9l0.3-0.2c-0.8-0.2-1.7-0.5-2.5-0.6c-0.2,0-0.1,0-0.3,0c-0.1,0-0.3-0.1-0.3-0.1c0.2,0,0.1,0,0.1,0
							c-0.3-0.1-0.6-0.1-0.8-0.2L104,65c-0.1,0-0.2,0-0.3-0.1c0,0-0.1-0.1,0,0c-0.5,0-0.4-0.1-0.8-0.1c-0.1,0-0.6,0-0.9,0h-0.2
							c0.2,0,0,0,0.3,0c-0.2-0.1-0.5-0.1-0.7-0.1c0,0,0,0-0.1,0s-0.1,0-0.3-0.1h0.2c-0.1,0-0.2,0-0.3,0c0,0-0.3-0.1-0.2-0.1
							c-0.2,0-0.3,0-0.5,0c0.2,0-0.1,0,0,0h0.3c-0.4-0.1,0.1,0,0.1,0c0.2,0-0.3,0,0,0.1c-0.4,0-0.4,0-0.8-0.1c0.2,0,0,0,0.1,0
							c-0.3,0-0.1,0-0.2,0c-0.2,0-0.2,0-0.4,0c-0.3,0,0,0-0.1,0c0.1,0,0.7,0.1,0.6,0c0.1,0,0.3,0,0.5,0c-0.2,0-0.4-0.1-0.6-0.1l0,0
							c-0.2,0-0.2,0-0.3,0c0.1,0,0,0-0.2,0h0.1c-0.2,0-0.3,0-0.5,0c0.2,0,0.3,0,0.5,0.1c-0.1,0-0.1,0-0.3,0l0,0h-0.1
							c-0.3,0,0,0-0.2-0.1c-0.2,0-0.2,0-0.3,0l0,0c0,0,0,0-0.1,0l0,0c-0.2,0-0.3,0-0.4,0c0,0-0.1,0-0.2,0s-0.3,0-0.4,0l0,0
							c-0.2,0-0.3,0-0.3,0h-0.3l0,0c-0.3,0-0.2,0-0.4,0.1c-0.2,0-0.5,0-0.7,0h-0.1h0.1c-0.2,0-0.2,0-0.3,0l0,0c0,0,0,0-0.1,0
							c0,0,0,0,0.1,0l0,0c-0.2,0-0.3,0-0.4,0c0,0,0,0,0.1,0c-0.1,0-0.3,0-0.3,0h-0.1h-0.1h0.1h-0.1h-0.3c-0.1,0-0.1,0-0.2,0l0,0
							c-0.1,0-0.1,0-0.1,0c-0.3,0-0.5,0.1-0.9,0.1c-0.1,0,0.1,0,0.1,0c-0.1,0-0.3,0.1-0.4,0.1c-0.2,0-0.7,0-0.6,0
							c-0.3,0,0.1,0-0.1,0l0,0c0.1,0,0.2,0,0.2,0s-0.2,0.1-0.3,0.1H92c-0.3,0-0.2,0.1-0.4,0.1c-0.2,0-0.1,0-0.1,0h-0.2l0,0
							c-0.1,0-0.2,0.1-0.4,0.1c0.1,0-0.3,0-0.1,0c-0.1,0-0.1,0.1-0.2,0c-0.1,0,0.1,0,0.2,0s-0.2,0.1-0.4,0.1c0,0,0.1,0-0.1,0
							c0,0-0.1,0-0.2,0c0,0-0.2,0-0.3,0c0.1,0,0.3,0,0.2,0c-0.1,0-0.1,0-0.3,0.1h0.1c-0.2,0.1-0.3,0-0.5,0.1c0.1,0,0.1,0,0.2-0.1
							c-0.1,0-0.3,0.1-0.4,0.1h-0.2c0,0-0.2,0-0.2,0.1c-0.2,0,0.2-0.1,0.2-0.1c-0.3,0-0.2,0.1-0.5,0.1h0.1c-0.1,0-0.3,0.1-0.3,0.1
							s0,0,0.1,0c0,0.1-0.4,0.1-0.4,0.1H88c-0.2,0-0.3,0.1-0.5,0.1c-0.1,0,0.1,0,0.1-0.1c-0.2,0-0.1,0.1-0.3,0.1c0.1,0,0.1,0,0,0
							c0.1,0,0.4-0.1,0.3-0.1l0,0h0.1c0.2,0,0.1,0,0.1,0c0.3,0,0-0.1,0.3-0.1l0,0c0.1,0,0.3-0.1,0.3-0.1c0.1,0,0.3-0.1,0.4-0.1
							c0,0.1-0.4,0.1-0.6,0.1c0.1,0-0.1,0-0.1,0.1l0.4-0.1h0.2l0,0c0.2,0,0.1-0.1,0.3-0.1l0,0c0.1,0,0.1,0,0.2-0.1
							c0.1,0-0.1,0,0.1,0c0.2-0.1,0.2,0,0.4-0.1c-0.1,0,0.5-0.1,0.2-0.1l0.3-0.1c0.1,0-0.2,0.1-0.1,0.1h-0.3c0.1,0,0.5-0.1,0.7-0.1
							c0.1,0,0.1,0,0.4,0h-0.1c0.1,0,0.2,0,0.2,0c0.1,0,0.1,0,0.2,0c0,0,0,0-0.1,0c0.1,0,0.1,0,0.2,0s0.1,0,0.2,0h-0.1
							c0.1,0,0.1,0,0.1,0h0.1c0,0-0.1,0-0.2,0c0.3,0,0.6-0.1,0.8-0.1h-0.1c0.1,0,0.3,0,0.3-0.1h0.1h0.1c0,0,0,0,0.1,0
							c0,0,0.3-0.1,0.4-0.1c-0.1,0-0.1,0-0.2,0c0.1,0,0.2-0.1,0.3-0.1c-0.2,0,0.2,0-0.1,0.1c0.2,0,0.1,0,0.3,0h0.1h-0.2h0.1
							c-0.1,0-0.5,0.1-0.7,0.1h0.5c0.6-0.1,1.3-0.1,1.9-0.2l0,0l0,0l0,0h0.1c0.1,0,0.3,0,0.5,0c-0.1,0-0.1,0-0.1,0s0,0,0.2,0
							c0,0-0.1,0,0,0c-0.1,0,0,0,0.1,0s0.3,0,0.3,0h-0.1c0,0,0.2,0,0,0h0.2c0.1,0-0.1,0,0,0c0.3,0,0.4-0.1,0.7-0.1l0,0
							c0.2,0,0.4,0,0.7,0c0,0-0.1,0-0.2,0c0.7,0,1.3,0.1,1.9,0.1h0.2h0.2c0.7,0.1,1.2,0.1,1.9,0.2c0.2,0,0.1,0,0.2,0.1
							c0.4,0.1,0.6,0,1,0.1c-0.1,0-0.2,0,0,0.1c0,0,0.1,0,0.2,0H103c0.1,0,0.2,0,0.4,0.1c0.4,0.1,0.8,0.1,1.1,0.1c0.3,0.1,0,0,0,0.1
							c-0.2-0.1-0.2,0-0.2,0c0.1,0,0.3,0,0.3,0.1c0.2,0,0.3,0.1,0.4,0.1c-0.1,0-0.2,0-0.1,0s0.5,0.1,0.5,0.1
							c0.6,0.1,1.3,0.3,1.9,0.5l0.2,0.1V66c0-0.3,0-0.5,0-0.7s0,0.1,0,0c0-0.2,0-0.2-0.1-0.4V65c0-0.3-0.1-0.5-0.2-0.8
							c0,0,0-0.2,0,0c0-0.1,0-0.3,0-0.4V64l-0.1-0.2c0-0.1,0-0.2-0.1-0.3c0,0,0.1,0.1,0.1,0.2c0,0-0.1-0.4,0-0.2
							c-0.1-0.2,0,0-0.1-0.1c0-0.1,0-0.1-0.1-0.2v0.1c-0.1-0.2-0.1-0.2-0.2-0.4l-0.1-0.2c0,0-0.1-0.2-0.1-0.3l0.1,0.1
							c-0.1-0.1-0.1-0.2-0.1-0.3c0.1,0.1,0.1,0.1,0.1,0.1l-0.1-0.2c0,0-0.1-0.1,0,0c-0.1-0.1-0.2-0.2-0.4-0.5
							c-0.1-0.2,0.1,0.1,0.1,0.1c-0.2-0.4-0.4-0.4-0.5-0.6c-0.2-0.3-0.2-0.2-0.4-0.4c0.1,0.1-0.1-0.2-0.2-0.2l0.1,0.1
							c-0.1-0.1-0.1-0.1-0.1-0.1s-0.3-0.3-0.5-0.4l0,0c-0.1-0.1-0.3-0.2-0.5-0.3c-0.2-0.2-0.2-0.1-0.4-0.2c-0.1-0.1-0.1-0.1,0-0.1
							s0.2,0.1,0.3,0.2c0.3,0.2,0.5,0.3,0.8,0.5c0.2,0-0.2-0.1-0.3-0.2l0,0l0,0c0.1,0.1,0.3,0.2,0.3,0.2c-0.2-0.1-0.2,0-0.3-0.2
							c-0.2-0.1-0.3-0.2-0.3-0.3c-0.1-0.1-0.1,0-0.4-0.2h0.1c-0.3-0.2-0.2,0-0.4-0.2c0.1,0.1-0.1,0,0.1,0.1c-0.1,0-0.3-0.1-0.5-0.2
							l0,0c0.2,0.1,0.3,0.1,0.4,0.2h0.1c0.1,0.1,0.2,0.1,0,0.1c0,0,0.1,0,0.1,0.1s-0.2-0.1-0.3-0.1l0.1,0.1c0,0.1-0.3-0.1-0.4-0.2
							c-0.2-0.1-0.3-0.2-0.3-0.2l0.2,0.1c-0.1-0.1-0.3-0.1-0.4-0.2l0,0l0,0h-0.1c-0.1,0-0.3-0.1-0.4-0.1l0,0l0,0
							c0.1,0,0.2,0.1,0.2,0.1c-0.2-0.1-0.3-0.1-0.3-0.2c0.1,0,0.2,0.1,0.4,0.1c-0.1-0.1-0.2-0.1-0.5-0.2c0.1,0,0.3,0.1,0.4,0.1
							c-0.2-0.1-0.3-0.1-0.5-0.2c0,0,0.2,0.1,0.2,0l-0.1-0.1c0.3,0.1,0-0.1,0.2,0c-0.1-0.1-0.2,0-0.4-0.1c0,0,0.2,0.1,0,0.1
							c-0.1,0-0.1-0.1-0.2-0.1s0.2,0,0.1,0s-0.1,0-0.2,0c0,0,0.1,0,0,0s-0.2,0-0.4,0c-0.1,0-0.2-0.1-0.2-0.1c-0.3,0-0.6-0.1-0.9-0.2
							c0.2,0,0,0-0.1-0.1c0.2,0,0.2,0,0.2,0c-0.1,0-0.2,0-0.2,0c-0.2,0-0.1,0-0.3,0c-0.1,0,0.1,0,0,0c-0.2,0-0.1,0-0.3,0l0,0
							c-0.1,0-0.3,0-0.3,0c-0.1-0.1-0.4,0-0.4-0.1c-0.3,0,0,0,0,0c-0.1,0-0.4,0-0.5,0c0.1,0,0.2,0,0.2,0s0,0-0.1,0
							c-0.4,0-0.3,0.1-0.7,0c0.2,0,0.1,0,0.2,0c-0.1,0-0.4,0-0.2,0c-0.1,0-0.2,0-0.4,0c-0.1,0-0.3,0-0.3,0c-0.2,0-0.4,0-0.5,0
							c-0.4,0-0.8,0-1.3,0.1l0,0c-0.4,0,0.2,0-0.2,0.1c0,0-0.2,0-0.3,0c-0.5,0-0.8,0.1-1.2,0.2c0,0,0,0,0.1,0
							c-0.3,0-0.6,0.1-0.9,0.2l0,0c-0.5,0.1-0.8,0.2-1.3,0.4c0,0,0,0,0.1,0c-0.2,0.1-0.6,0.2-0.7,0.3c-0.3,0.1-0.2,0.1-0.5,0.2
							c0,0,0,0,0.1,0c-0.2,0.1-0.3,0.1-0.4,0.2c-0.3,0.2-0.4,0.3-0.8,0.5c-0.1,0,0.2-0.2,0.2-0.2c-0.1,0.1-0.1,0.1-0.3,0.2
							c0.1-0.1,0,0,0-0.1c-0.1,0-0.3,0.3-0.3,0.3s0,0,0.1-0.1c-0.1,0.1-0.4,0.3-0.5,0.4c0.1,0,0.3-0.2,0.2-0.1
							C88,60.8,88,60.9,87.9,61c-0.2,0.2,0.1-0.2,0.1-0.2s-0.1,0.1-0.1,0c-0.2,0.2-0.3,0.3-0.5,0.5l0,0c-0.2,0.2-0.4,0.5-0.6,0.7
							l0.1-0.1c0,0-0.1,0.2-0.2,0.2l-0.1,0.1c0,0.1-0.4,0.6-0.4,0.8c0,0.1,0,0,0,0c0.1-0.2,0.2-0.2,0.2-0.3
							c-0.1,0.1-0.2,0.2-0.2,0.2c-0.1,0.2-0.2,0.5-0.2,0.6c-0.1,0.1-0.1,0.2-0.1,0.1c-0.2,0.5,0.2-0.2-0.1,0.3
							c-0.1,0.2,0.1-0.2-0.1,0.1v-0.1c-0.2,0.2,0,0.2-0.1,0.5c0,0,0-0.2,0,0c-0.1,0.3-0.1,0.4-0.1,0.6l0,0c0,0.2-0.1,0.5-0.1,0.7
							c0,0,0,0,0-0.1c-0.1,0.3,0,0.1-0.1,0.4v0.1c0-0.2,0.1-0.4,0.1-0.6c0,0.2,0.1-0.2,0.1-0.2l0,0c0.1-0.4,0.3-0.9,0.5-1.4
							c0.1-0.3,0.3-0.5,0.4-0.8c0-0.1,0-0.1,0.2-0.3c-0.1,0.1,0,0,0.1,0c0-0.1,0.1-0.1,0.1-0.2c0-0.1,0.3-0.3,0.4-0.5
							c0.1-0.1,0,0,0,0.1c0.1,0,0.1-0.1,0.1-0.2l0,0c0.2-0.2,0.3-0.4,0.5-0.6c0,0,0.2-0.2,0.3-0.3c0,0,0.1-0.1,0.2-0.2l0.1-0.1
							c0.1-0.1,0.2-0.1,0.3-0.3l0,0c0.1-0.1,0.4-0.3,0.6-0.4c0.3-0.2,0.6-0.3,0.8-0.5c0.3-0.1,0.5-0.2,0.8-0.3
							c0.5-0.2,1.1-0.3,1.8-0.5c0.1,0-0.1,0,0,0s0.2-0.1,0.3-0.1c-0.1,0-0.1,0-0.1,0c-0.1,0-0.1,0-0.2,0.1l0,0
							c-0.1,0-0.1,0.1-0.2,0.1c0.1,0,0.1-0.1,0.3-0.1c0,0,0,0-0.1,0c0.1,0,0.1-0.1,0.3-0.1c0.1,0,0.1,0,0.1,0l0.4-0.1
							c0.2-0.1,0.5-0.1,0.5-0.1s-0.3,0.1-0.4,0.1h0.2l0,0H94l0,0c0,0,0,0,0.1,0l0,0h0.1c-0.1,0,0.1,0,0.1,0c0.5,0,0.6-0.1,1.1-0.1
							c-0.1,0,0.1-0.1,0.3-0.1c0.1,0,0.1,0,0,0h0.2c0.2,0,0.4,0,0.8,0l0,0c0.1,0,0.2,0,0.4,0l0,0c0.2,0,0.2,0,0.4,0
							c0,0-0.2,0-0.2-0.1c0.1,0,0.3,0,0.3,0c0.2,0,0.2,0,0.2,0h0.1c0.2,0,0.1,0,0,0c0.2,0,0.3,0,0.5,0h-0.1h0.2c0.2,0,0.4,0,0.6,0.1
							H99c0.1,0,0.1,0,0.1,0c0.2,0,0.3,0,0.4,0.1C100.2,58.5,100.5,58.7,100.8,58.7z M93.9,64.5L93.9,64.5
							C93.8,64.6,93.8,64.6,93.9,64.5z M95.8,64.4c-0.2,0-0.2,0-0.2,0c0.2,0,0.4,0,0.6,0c0,0,0,0-0.1,0c0.1,0,0.2,0,0.2,0
							C96.2,64.4,95.7,64.4,95.8,64.4z M91.4,65L91.4,65L91.4,65L91.4,65z M92.6,64.8L92.6,64.8L92.6,64.8z M94.9,64.6
							c0.1,0,0.2,0,0.3,0C95.1,64.6,95.1,64.6,94.9,64.6z M107.3,64.1C107.3,64.1,107.3,64.3,107.3,64.1L107.3,64.1L107.3,64.1
							C107.3,64,107.3,64,107.3,64.1z M102.7,59.1C102.7,59.1,102.8,59.1,102.7,59.1L102.7,59.1C102.8,59.1,102.8,59.1,102.7,59.1
							L102.7,59.1C102.6,59.1,102.5,59,102.7,59.1z"/>
						<path class="st12" d="M104.8,60.2C104.8,60.2,104.8,60.1,104.8,60.2C104.8,60.1,104.8,60.2,104.8,60.2z"/>
						<path class="st12" d="M102.6,59.1C102.6,59.1,102.7,59.1,102.6,59.1C102.8,59.1,102.7,59.1,102.6,59.1z"/>
						<path class="st12" d="M87.7,65.5L87.7,65.5L87.7,65.5c-0.3,0.1-0.3,0.1-0.4,0.1c0.2-0.1,0.3-0.1,0.6-0.1H87.7z"/>
						<path class="st12" d="M87.8,65.6L87.8,65.6L87.8,65.6L87.8,65.6z"/>
						<path class="st12" d="M90.5,65.2h-0.2C90.2,65.2,90.4,65.2,90.5,65.2z"/>
						<path class="st12" d="M89.5,65.1L89.5,65.1c0,0,0.1,0,0.2,0C89.5,65.1,89.6,65.1,89.5,65.1z"/>
						<path class="st12" d="M91,65.1c0.1,0,0.2,0,0.3-0.1C91.2,65.1,91.1,65.1,91,65.1z"/>
						<path class="st12" d="M90.9,64.9c-0.1,0-0.2,0-0.3,0C90.7,64.9,90.8,64.9,90.9,64.9z"/>
						<path class="st12" d="M92.2,64.9c0,0-0.1,0-0.2,0H92.2c-0.3,0-0.3,0-0.4,0.1C91.9,65,92.1,64.9,92.2,64.9
							C92.2,64.9,92.3,64.9,92.2,64.9z"/>
						<path class="st12" d="M91.2,64.8c-0.1,0-0.2,0-0.3,0C90.9,64.9,90.9,64.9,91.2,64.8L91.2,64.8C91.2,64.9,91,64.9,91.2,64.8z"
							/>
						<path class="st12" d="M92.8,64.9L92.8,64.9c-0.2,0-0.4,0.1-0.5,0.1C92.5,64.9,92.7,64.9,92.8,64.9z"/>
						<path class="st12" d="M91.7,64.8L91.7,64.8C91.6,64.8,91.8,64.8,91.7,64.8c-0.1,0-0.1,0-0.2,0C91.8,64.8,91.6,64.8,91.7,64.8z
							"/>
						<path class="st12" d="M92.3,64.7h0.2H92.3C92.1,64.7,92.3,64.7,92.3,64.7z"/>
						<path class="st12" d="M92.5,64.7L92.5,64.7l0.3-0.1C92.7,64.7,92.6,64.7,92.5,64.7z"/>
						<path class="st12" d="M96.2,64.6C96.3,64.6,96.1,64.6,96.2,64.6C96.1,64.6,96.4,64.6,96.2,64.6z"/>
						<path class="st12" d="M95.5,64.4c0.1,0,0.4,0,0.5,0C95.8,64.3,95.5,64.4,95.5,64.4z"/>
						<path class="st12" d="M96,64.3L96,64.3L96,64.3z"/>
						<path class="st12" d="M101.3,64.5C101.3,64.5,101.4,64.5,101.3,64.5C101.4,64.5,101.4,64.5,101.3,64.5z"/>
						<path class="st12" d="M101.2,64.5c-0.1,0-0.3,0-0.3,0C101,64.5,101.1,64.5,101.2,64.5S101.2,64.5,101.2,64.5z"/>
						<path class="st12" d="M102.4,64.7C102.3,64.7,102.3,64.7,102.4,64.7C102.3,64.7,102.5,64.7,102.4,64.7z"/>
						<path class="st12" d="M107,63.1C107,63,106.9,62.9,107,63.1C107,63.1,107,63,107,63.1z"/>
						<polygon class="st12" points="106.9,62.8 106.9,62.8 106.9,62.7 						"/>
						<path class="st12" d="M106.5,62.1C106.5,62.1,106.6,62.1,106.5,62.1C106.5,62.1,106.5,62,106.5,62.1z"/>
						<path class="st12" d="M106.6,62.1L106.6,62.1L106.6,62.1z"/>
						<path class="st12" d="M106.6,62.2L106.6,62.2C106.6,62.2,106.6,62.1,106.6,62.2C106.6,62.1,106.6,62.2,106.6,62.2z"/>
						<path class="st12" d="M106.4,61.8c0,0,0,0.1,0.1,0.2c0.1,0.1-0.1-0.2,0,0C106.5,61.9,106.4,61.9,106.4,61.8z"/>
						<path class="st12" d="M106.1,61.4c-0.1-0.1-0.2-0.3-0.3-0.4c-0.3-0.3,0,0.1-0.3-0.2c0.3,0.3,0.2,0.1,0.5,0.4
							C105.8,61.1,106,61.4,106.1,61.4z"/>
						<path class="st12" d="M106.1,61.5c0,0-0.1-0.1-0.1-0.2C106,61.4,106,61.5,106.1,61.5z"/>
						<polygon class="st12" points="105.5,60.8 105.4,60.7 105.4,60.7 						"/>
						<path class="st12" d="M105.2,60.4L105.2,60.4C105.3,60.5,105.1,60.4,105.2,60.4z"/>
						<path class="st12" d="M104.7,60C104.6,59.9,104.5,59.9,104.7,60L104.7,60C104.6,60,104.5,59.9,104.7,60z"/>
						<path class="st12" d="M103.3,59.2C103.4,59.2,103.5,59.3,103.3,59.2L103.3,59.2L103.3,59.2z"/>
						<path class="st12" d="M103.3,59.3c0.1,0.1,0.2,0.1,0.3,0.2C103.4,59.4,103.4,59.4,103.3,59.3z"/>
						<path class="st12" d="M103.1,59.1c0.1,0,0.1,0.1,0.2,0.1C103.3,59.1,103.1,59.1,103.1,59.1z"/>
						<path class="st12" d="M102.7,58.9C102.7,58.9,102.8,58.9,102.7,58.9c-0.2-0.1-0.3-0.2-0.4-0.2c0,0,0.1,0.1,0,0.1
							C102.6,58.9,102.7,58.9,102.7,58.9L103,59C102.9,58.9,102.9,59,102.7,58.9z"/>
						<path class="st12" d="M103.2,59.2L103.2,59.2l-0.2-0.1C102.9,59.2,103.1,59.2,103.2,59.2z"/>
						<polygon class="st12" points="101.4,58.5 101.2,58.5 101.3,58.5 						"/>
						<polygon class="st12" points="101.3,58.5 101.3,58.4 101,58.4 						"/>
						<polygon class="st12" points="101,58.4 101,58.4 101.2,58.4 						"/>
						<path class="st12" d="M100.4,58.2L100.4,58.2c0.1,0,0.3,0.1,0.2,0.1C100.6,58.3,100.5,58.2,100.4,58.2z"/>
						<path class="st12" d="M98.5,58.4L98.5,58.4L98.5,58.4C98.4,58.4,98.4,58.4,98.5,58.4z"/>
						<path class="st12" d="M98.1,58.3h-0.2c0.2,0,0.3,0,0.5,0C98.3,58.3,98.2,58.3,98.1,58.3L98.1,58.3z"/>
						<path class="st12" d="M94,58.5C94,58.5,94,58.5,94,58.5c-0.1,0-0.3,0.1-0.5,0.1c0,0-0.1,0.1,0,0l0.3-0.1l0,0
							C93.9,58.6,93.8,58.5,94,58.5z"/>
						<path class="st12" d="M86,64.7C86,64.7,85.9,64.7,86,64.7C85.9,64.9,86,64.7,86,64.7z"/>
					</g>
				</g>
			</g>
		</g>
	</g>
	<g>
		<path class="st13" d="M113,54.5c0.1-1,0.5-2.6-0.5-3c-0.7-0.4-2.2,0.1-2.1,1.4l-0.1,0.1h-0.1c-0.1-0.7-0.1-0.1-0.2-0.7
			c0.4-0.2,0.2-0.3,0.4-0.5c0.7-0.6,1.4-0.9,2.4-1c0.3,0.8,0.9,0.3,1.1,0.9c0,0.2,0.1,0.1,0.2,0.4c0.3,0.8-0.3,2.4-0.4,2.6
			c-0.8,1.3-2.7,2.6-4.7,2.2c-0.6-0.1-2,0.4-2.9,0.2c-4.6-0.8-11.2-1.3-13.7-0.7c-0.3,0-0.7-0.1-1-0.1c-0.3,0.1-1,0.3-1.4,0.4
			c-0.3,0.1-0.6-0.1-0.7-0.1c-0.1,0.1-0.2,0.2-0.4,0.4c-0.6,0-1.2,0.1-1.7,0.1c-1.9,0.5-3.9,0.8-6.2,0.3c-0.2-0.3-0.3-0.3-0.4-0.6
			c0.1,0,0.2,0,0.2,0c0.5,0.4,2.4,0.3,3.6,0s4.2-1.1,6.2-1.2c0.9-0.1,2.6-0.2,3.7-0.4c0.3-0.1,0.7,0.3,1,0.2
			c0.5-0.1,0.8-0.5,1.5-0.4c0.1,0,0.6,0.4,0.6,0.4c0.4,0.1,0.4-0.2,0.5-0.2c0.5-0.2,1.2,0.1,1.6,0.4c0.3,0.1,0.2,0,0.2-0.3
			c0.4-0.1,0.4,0.2,0.6,0.3c0.1,0,0.3-0.2,0.4-0.3l2,0.3c0,0.1,0,0.2,0,0.2c0.6,0,1.2,0,1.9,0c1.4,0.3,3.8,0.6,4.9,0.4
			c0.7-0.1,1.9-0.3,2.5-0.6C112.4,55.1,112.3,54.6,113,54.5z"/>
	</g>
	<path class="st13" d="M54.2,43.6c1.4,0,2.1,0,3,0.2c0.4,0.1,1.3,0.4,1.4,0.2c0.1,0.1,0.1,0.4,0.2,0.5c0.4,0.2,1.1-0.2,1.7,0
		c0.5,0.2,1.2,0.6,1.6,0.7c0.2,0,0.5-0.1,0.7-0.1c0.3,0.1,0.8,0.6,1.5,0.2c0.1,0.1,0.2,0.2,0.4,0.4c0.2,0,0.3-0.1,0.5-0.1
		c0.1,0.1,0.3,0.3,0.4,0.4c0.3,0.1,0.9,0,1.2-0.1c0.4,0.1,0.5,0.3,0.9,0.5c0.6,0.3,2.9,0,3.5-0.1c0.8-0.2,1.5,0,2.1-0.1
		c1.6-0.4,3.3-0.9,4.9-1.5c1-0.4,3-1.8,3.6-2.6c0.2-0.3,0.3-0.6,0.5-0.9c0-0.8,0-1-0.1-1.6c0-0.2,0.1-0.4,0.1-0.6
		c-0.1-0.5-0.7-0.9-1-1.2c-1.3-1.7-3-2.9-5-1.7c-0.2,0-0.5,0.1-0.7,0.1c-0.3,0.2-1.2,1.5-1.4,1.9c-0.2,0.6,0,0.8-0.1,1.2
		c-0.1,0-0.2-0.1-0.4-0.1c0-0.2,0-0.3,0-0.5l1.2-2.5c0.2,0,0.3,0,0.5,0c0.2-0.6,1.1-1,1.6-1.2c0.1,0.1,0.5,0.4,0.7,0.4
		c0.7,0,0-0.4,0.7-0.1v-0.1l-0.1-0.1c0.1,0,0.2,0,0.2,0c0.1,0.1,1,0.5,1.2,0.4c0.6,0.4,1,1,1.5,1.5c0.1,0,0.2,0.1,0.4,0.1
		c0.3,0.3,0.3,0.8,0.5,1.1c0.1,0,0.2,0.1,0.4,0.1c0.5,0.6,0.5,3,0,4.1c-0.1,0.2-0.5,0.3-0.6,0.5c-0.4,0.5-0.5,1.2-1,1.6
		c-0.4,0.3-0.9,0.2-1.4,0.5c0,0.1-0.1,0.2-0.1,0.4c-0.2,0.1-0.9,0.1-1.6,0.4c-0.4,0.2-0.7,0.7-1.1,0.9c-1.7,0.7-3.7,0.8-5.6,1.2
		c-2.3,0.6-5.8-0.5-7.2-1c-1-0.3-1.8-0.2-2.7-0.5c-3.1-0.9-7.6-1.8-10.5-2.4c-0.6-0.1-0.9,0.2-1.4,0.1c-1.6-0.2-4.6-0.3-5.7,0.1
		c-1.1,0.1-2.2,0.2-3.4,0.2c-1.6,0.4-3.4,0.9-4.9,1.4c-1.1,0.4-2.6,0.1-3.1,1c0.1,0,0.2,0,0.4,0c1.1-0.7,4.7,0.8,5.4,1.1
		c3.9,2,6.3,4.3,7.5,9.1c0.2,0.8,0.3,1.9,0,2.9c-0.7,2.2-2.4,4.4-4.7,5c-3.2,0.9-6.1-1.7-6.1-4.4c0.3-0.2,0.4-0.4,0.5-0.8h0.1
		c0,0.1,0,0.2,0,0.2C35,60.2,35,61,35.1,61.6c0.2,0.2,0.2,0.5,0.4,0.7c0.3,0.4,2.1,1.4,2.6,1.7c0.2,0,0.5-0.1,0.7-0.1
		c0.4,0,0.5,0.2,0.7,0.2c0.8,0.2,1.7-0.5,2.1-0.7c2-1.2,3.8-3.9,2.9-7.2c-0.1-0.5-0.1-0.4,0-1c-0.1-0.4-0.6-0.6-0.7-0.9
		c-0.3-0.4-0.3-1-0.6-1.4c-1.7-1.8-4-4.1-6.7-5c-2.8-0.9-6.8-0.2-8.8,0.9c-0.5,0.2-0.9,0.3-1.4,0.5c-0.7,0.5-2.9,2.6-3.4,3.4
		c-2.5,4.4-3.6,11.9-2.2,17.7c-0.3,0-0.2,0-0.2,0.6c0.7,1,0.5,2.7,0.9,3.6c0.6,1.6,1.6,3.4,2.1,5.2c-0.3,0-0.1-0.1-0.4,0
		c0.2,0.6,0.5,0.8,0.4,1.4c0.5,0.1,0.5-0.1,0.6,0.2c0.2,0.2-0.2,0.1,0,0.3c0.4,1.2,1.6,2.1,2.2,3c0.4,0.7,0.6,1.4,1.1,2
		c0.2,0.1,0.4,0.2,0.6,0.4c0,0.1-0.1,0.5,0.1,0.7c0.2,0.3,1.2,0.8,1.4,1.1c0,0-0.1,0.5,0.1,0.7c0.2,0.3,0.2-0.2,0.5,0
		c0.6,0.3,0.9,1.2,1.6,1.5c0,0.3,0,0.1,0,0.5c0.3,0.1,1.7,0.9,1.9,1.1c0.2,0.3,0.3,0.6,0.5,0.9c0.4,0.3,0.5,0,0.9,0.2
		c0.3,0.2,0.4,0.7,0.6,0.9c0.4,0.4,1.2,0.4,1.4,0.6c0.7,0.6,1.5,1.2,2.4,1.6c0,0.3-0.1,0.1,0,0.4c0.1,0,0.2,0.1,0.4,0.1
		c0,0,0.1-0.5,0.1-0.3v0.1c2.9,1.8,5.9,3.2,9.6,4.4c9.4,3.1,21.7,1.1,29.4-2.2c1.9-0.8,3.8-1.9,5.5-3.1c0.4-0.5,0.8-0.9,1.2-1.4
		c0.6-0.4,1.3-0.5,1.7-1c0-0.2,0.1-0.3,0.1-0.5c0.4-0.4,0.8-0.7,1.2-1.1c0.5-0.7,0.9-1.5,1.4-2.2c1.4-2.2,3.1-4.6,3.7-7.5
		c0.1,0,0.2,0.1,0.2,0.1v-0.1c0.5-1.1,0.6-2.1,1-3.6c0.1-0.5,0.5-1.3,0.7-2.2c0.1-0.2-0.2-1.1-0.1-1.5c0.1-0.1,0.2-0.2,0.4-0.2
		c0.3-0.7,0.1-1.3,0.2-2.1c0.5-2.1,0.5-4.8,0.4-6.8c0.3,0,0.2,0.1,0.2-0.5c-0.2-0.3-0.1-0.9,0-1.2c0.1,0,0.2,0,0.2,0
		c0,0.1,0,0.2,0,0.2c0.3,0.5-0.1,5-0.2,5.6c-0.3,0.8,0.2,2.1,0,2.6c-0.1,0.1-0.2,0.2-0.4,0.2c0,0.4,0.1,0.7,0.1,1.1
		c-0.1,0.7-0.4,1.4-0.5,2c0,0.2,0.2,0.7,0.1,1.1c-0.2,0.7-0.4,1.4-0.7,2.2c-0.1,0.2-0.4,0.4-0.5,0.6c-0.1,0.5,0.4,0.3,0.2,0.7
		c-0.1,0-0.2,0-0.2,0c-0.2,0.5,0.1,0.7,0,1.1c-0.1,0.1-0.2,0.2-0.4,0.4c0,0.2,0.1,0.3,0.1,0.5c-0.1,0.3-0.5,0.4-0.6,0.6
		s-0.2,1.2-0.4,1.7c-0.6,1.6-1.7,2.9-2.5,4.2c0,0.7,0,1.1-0.2,1.5c-0.5,0.7-1.7,1.7-2.1,2.4c0,0.2-0.1,0.4-0.1,0.6
		c-0.5,0.7-1.5,1.1-2.1,1.7c-0.3,0.3-0.4,0.8-0.7,1c-0.9,0.6-1.9,1-2.9,1.5c-0.6,0.3-1.2,1-1.7,1.4c-0.7,0.4-1.4,0.5-2.2,0.9
		c-0.1,0.1-0.2,0.2-0.2,0.4c-0.6,0.4-1.2,0.4-2,0.7c-0.4,0.1-0.7,0.6-1,0.7c-0.7,0.2-1.5,0.3-2.2,0.5c-1,0.3-2.6,0.7-3.2,1
		c-0.4,0-0.7-0.1-1.1-0.1c-1.2,0.2-2.4,0.4-3.5,0.7c0-0.2,0.1,0,0-0.2c-1.3,0.9-3.6,0.1-5.2,0.4c-1.1,0.2-2.4,0-3.4-0.3
		c-0.3-0.1-0.6,0.1-0.7,0.1c-0.9-0.1-1.8-0.2-2.7-0.2c-3-0.7-5.8-1.4-8.3-2.5c-13.6-5.6-22.1-14.6-26-29.5c0-0.7-0.1-1.5-0.1-2.2
		c-0.6-2.6-0.2-5.4-0.2-7.8h0.1c0.1,0.2,0,0.1,0.1,0.2c0-0.3,0-0.6,0-0.9c-0.5-0.8,0.5-3.7,0.7-4.4c0.9-2.5,1.8-5.4,3.7-6.8
		c0.9-0.7,4.3-2.6,4.5-3.2c0.1,0,0.2,0,0.4,0c0.4-0.6,1.6-1.5,2.2-1.7c0.2,0,0.3,0.1,0.5,0.1c0.2-0.1,0.3-0.6,0.5-0.7
		c0.5-0.3,1-0.2,1.6-0.5c0.5-0.2,1.2-0.8,1.7-1c1.3-0.6,2.4-0.8,3.7-1.4c1-0.5,2.6-2,3.5-2.1c0-0.1,0-0.2,0-0.4
		c0.7-0.4,1-0.8,1.7-0.9c0-0.5,1.6-2.3,2-2.4c0.1-1.1,0.8-1.5,1.2-2.4s-0.2-2.6-0.4-3c-0.6-1.4-2.7-4.5-5.5-3.7
		c-1.7,0.5-2.6,1.6-3.4,2.6c-0.1,0.1-0.5,0.2-0.6,0.4c-0.3,0.5,0.1,0.5-0.4,0.9c0.1,0.3,0.1,0.2,0.2,0.5l-0.1-0.1
		C37,30.9,37,31.3,37,31.3c-0.2,0.3-0.1,0.7,0,0.7c0.2,0.7,0.4,1,1,1.2v0.1c-0.1,0-0.2-0.1-0.4-0.1c0,0.3,0.1,0.2-0.2,0.2v-0.1
		c-0.9-0.8-0.8-1.8-0.9-3.2c0.3-0.2,0.9-1,0.5-1.2c0.7-0.5,1.4-1.2,2.4-1.9c0.1-0.2,0.2-0.3,0.2-0.5c0.6-0.3,1,0,1.7-0.2
		c2.6-0.8,3.4,0.2,4.6,1.2c0.4,0.3,1.8,1,1.4,1.6c0.6,0.7,1.5,2.1,1.1,3.7c-1.1,4.7-5.4,7.5-8.8,9.5c-1.2,0.7-2.5,0.7-3.9,1.4
		c-1,0.5-2.2,1.3-3.4,1.6c0,0.1,0,0.2,0,0.2h0.1c0.7-0.5,3.2-1.2,3.7-1c0.4-0.2,1-0.7,1.4-0.9c0.2-0.1,0.7,0.1,1.1,0
		c1.1-0.4,2.7-0.5,3.6-0.7c1.4-0.4,3.2,0.1,4.5-0.2c0.6-0.2,1.6,0,2,0.1c0.6,0,1.2,0,1.9,0c0.7,0.1,2.4,0.6,3.1,0.4
		C54.2,43.3,54.2,43.4,54.2,43.6z M38.3,33.4c0.1,0.2,0.2,0.1,0,0.2C38.3,33.5,38.3,33.4,38.3,33.4z M38.7,33.6c0.3,0,0.2,0,0.4,0.1
		H39c-0.1,0.1,0,0-0.2,0.1C38.7,33.8,38.7,33.7,38.7,33.6z M74,39.5c0.1,0.1,0.1,0.1,0.1,0.4H74C74,39.7,74,39.6,74,39.5z
		 M74.1,40.1c0.2,0.2,0.2,0.3,0.2,0.6h-0.1l-0.1-0.1C74,40.3,74,40.5,74.1,40.1z M36.4,58.6c0.1,0,0.2,0,0.2,0l-0.1,0.1
		C36.4,58.8,36.2,58.8,36.4,58.6z M36,58.9c0.1,0,0.2,0,0.2,0V59C36,58.9,36.1,59,36,58.9z M35.7,59.1c0.1,0.1,0.2,0,0.1,0.2h-0.1
		c0,0-0.2,0.4-0.4,0.2C35.5,59.5,35.6,59.3,35.7,59.1z M96.6,60.4c0.3,0.3,0.3,0.8,0.1,1.2h-0.1C96.6,61.2,96.6,60.8,96.6,60.4z
		 M96.7,62.4c0.3,0.4,0.3,1.5,0,1.9C96.7,63.6,96.7,63,96.7,62.4z"/>
</g>
<g>
	<path class="st0" d="M233.2,118.3h9.5v4.2h-5.4v15.1h-4.2L233.2,118.3L233.2,118.3z M234.3,119.5v17.1h2v-15.1h5.4v-2H234.3z"/>
	<path class="st0" d="M250.8,140.1v1.7h-1.7v-19.3c0.1,0,0.3,0.1,0.6,0.2s0.7,0.3,1.3,0.5h3.8c0.6-1.2,1.1-2.8,1.4-4.6
		c1.8,0.4,2.7,0.8,2.7,1.2c0,0.2-0.4,0.5-1.2,0.7c-0.4,0.9-1,1.8-1.7,2.8h7l0.9-1c1.2,0.9,1.8,1.5,1.8,1.8c0,0.1-0.1,0.2-0.2,0.3
		l-0.7,0.5v17h-1.7v-1.7h-12.3V140.1z M250.8,128.2h12.4v-3.9h-12.4V128.2z M250.8,133.4h12.4v-4h-12.4V133.4z M250.8,138.9h12.4
		v-4.2h-12.4V138.9z"/>
	<path class="st0" d="M281.8,125.1h3.7c0.1-0.7,0.1-1.2,0.1-1.5V119c1.7,0,2.5,0.3,2.5,0.7c0,0.2-0.3,0.4-1,0.7v3.3
		c0,0.4,0,0.9-0.1,1.5h4.1l1.1-1.2c0.5,0.4,1,0.9,1.6,1.6l-0.4,0.8h-6c1.1,3.3,3.4,5.8,6.8,7.5c-0.6,0.5-1.1,0.9-1.4,1.5
		c-1.3-0.8-2.5-1.9-3.5-3.1c-1.2-1.5-2.1-3.2-2.6-5c-0.6,2.3-1.7,4.2-3.4,5.8c-0.9,0.9-2.1,1.7-3.6,2.5l-0.6-0.9
		c3.5-2,5.5-4.8,6.3-8.2h-3.9c-1.8,4.5-5,7.8-9.5,10.1l-0.6-0.9c4.9-2.7,8.1-6.8,9.5-12.4h-4c-0.2,0.4-0.4,0.9-0.7,1.4
		c0,0,0.1,0,0.2,0.1c1.9,0.9,2.9,1.7,2.9,2.4c0,0.2-0.1,0.5-0.4,0.7c-0.3,0.2-0.5,0.3-0.7,0.3c-0.2,0-0.4-0.2-0.5-0.5
		c-0.4-0.9-1-1.7-1.9-2.3c-0.4,0.6-0.9,1.3-1.4,2c0.7,0.4,1.3,0.8,1.8,1.2c0.7,0.6,1.1,1.2,1.1,1.7c0,0.3-0.2,0.6-0.5,0.8
		c-0.2,0.1-0.4,0.2-0.6,0.2c-0.2,0-0.4-0.2-0.5-0.5c-0.3-1-1-1.9-1.9-2.7c-0.7,0.8-1.4,1.5-2.2,2.2l-0.7-0.7
		c2.9-2.9,4.8-6.4,5.7-10.5c1.6,0.3,2.4,0.7,2.4,1c0,0.2-0.4,0.5-1.1,0.7c-0.2,0.5-0.3,0.9-0.4,1.3h3.5l0.9-1c1,0.8,1.6,1.4,1.6,1.7
		c0,0.1-0.1,0.3-0.3,0.4l-0.6,0.3C282.1,124,282,124.6,281.8,125.1z M274.9,135.5l0.9,0.4c-0.4,2.2-1.1,4-2.2,5.3
		c-0.5,0.6-0.9,0.9-1.3,0.9c-0.3,0-0.6-0.2-0.8-0.6c-0.2-0.3-0.3-0.5-0.3-0.6c0-0.2,0.1-0.4,0.4-0.6
		C273.1,139.3,274.2,137.7,274.9,135.5z M279,135.6c1.3,1.9,1.9,3.5,1.9,4.7c0,1-0.4,1.5-1.3,1.5c-0.4,0-0.6-0.2-0.6-0.6
		c0-1.1,0-1.9-0.1-2.3c-0.1-1-0.4-1.9-0.8-2.8L279,135.6z M283.6,135.5c2.2,2.1,3.3,3.8,3.3,5c0,0.5-0.2,0.8-0.6,1
		c-0.3,0.1-0.5,0.2-0.7,0.2c-0.3,0-0.5-0.2-0.5-0.6c-0.2-1.7-1-3.4-2.1-5L283.6,135.5z M288.8,135.3c1.7,1.1,3,2.2,3.9,3.4
		c0.6,0.8,1,1.4,1,1.8c0,0.4-0.2,0.7-0.6,1c-0.3,0.2-0.5,0.3-0.7,0.3c-0.3,0-0.4-0.2-0.6-0.6c-0.6-1.7-1.8-3.4-3.6-5.1L288.8,135.3z
		 M289,119.9c1.9,1.2,2.9,2.2,2.9,3c0,0.3-0.2,0.6-0.5,0.7c-0.3,0.2-0.5,0.2-0.8,0.2c-0.2,0-0.4-0.2-0.5-0.6c-0.3-1-0.8-2-1.7-2.8
		L289,119.9z"/>
	<path class="st0" d="M304.5,119.3c0.3-0.1,0.6-0.1,0.9-0.1c0.5,0,1,0.2,1.5,0.5s0.7,0.6,0.7,0.9c0,0.2-0.1,0.5-0.2,0.7
		c0,0-0.2,0.3-0.5,0.7c-0.7,1.1-1.1,1.7-1.2,1.9c1.4-0.3,2.3-0.7,2.9-1.2c0.4-0.3,0.8-0.5,1.3-0.5c0.4,0,0.7,0.1,1,0.2
		c0.3,0.2,0.5,0.4,0.5,0.6c0,0.4-0.3,0.7-0.8,0.9c-1.6,0.7-3.6,1.2-6,1.6l-0.2,0.3c-1.1,1.6-2,2.9-2.6,3.8c1.4-1,2.7-1.5,4-1.5
		c1.5,0,2.6,0.9,3.4,2.7c1.3-0.6,2.4-1,3.1-1.3c1-0.4,1.5-0.7,1.5-1.1c0-0.2-0.2-0.5-0.6-0.7l0.8-0.5c1.5,0.7,2.2,1.4,2.2,2.1
		c0,0.3-0.3,0.6-0.8,0.9c-0.5,0.2-1.2,0.5-2.2,0.7c-0.8,0.2-2,0.6-3.6,1.3c0.2,0.9,0.3,1.7,0.3,2.5c0,0.6-0.1,1-0.4,1.3
		c-0.3,0.3-0.5,0.5-0.8,0.5s-0.6-0.1-0.7-0.4c-0.1-0.2-0.1-0.4-0.1-0.7c0-0.1,0-0.6,0-1.5c0-0.3,0-0.6,0-1c-1.7,0.7-2.9,1.4-3.7,2.1
		c-0.8,0.7-1.2,1.4-1.2,2.3c0,0.6,0.4,1.1,1.2,1.5c1,0.5,2.5,0.7,4.4,0.7c2.2,0,3.6-0.2,4.4-0.6c0.3-0.2,0.6-0.3,1-0.3
		c0.5,0,0.8,0.1,1.2,0.3c0.3,0.2,0.5,0.5,0.5,0.8c0,0.5-0.5,0.8-1.4,0.9c-1.4,0.2-3.3,0.4-5.7,0.4c-2.1,0-3.8-0.3-4.9-0.8
		c-1.4-0.7-2-1.6-2-2.9c0-1.2,0.6-2.4,1.8-3.4c0.9-0.8,2.4-1.6,4.3-2.5c-0.2-0.6-0.4-1.1-0.6-1.4c-0.4-0.5-0.9-0.8-1.6-0.8
		c-0.6,0-1.3,0.3-2.3,0.9c-0.6,0.3-1.1,0.9-1.6,1.7c-0.1,0.2-0.3,0.4-0.4,0.7c-0.1,0.3-0.4,0.5-0.7,0.5s-0.5-0.2-0.7-0.5
		c-0.2-0.3-0.3-0.7-0.3-1.1c0-0.3,0.2-0.7,0.6-1.1c0.2-0.2,0.6-0.7,1.1-1.5c0.1-0.1,0.2-0.2,0.3-0.4c0.6-0.7,1.1-1.6,1.7-2.5
		c-0.3,0-0.6,0-0.8,0c-1.1,0-1.9-0.3-2.5-0.9c-0.2-0.2-0.4-0.5-0.7-0.9l0.6-0.7c0.6,0.8,1.3,1.2,2.3,1.2c0.5,0,1.2,0,1.8-0.1
		c0.9-1.7,1.4-2.8,1.4-3.2c0-0.6-0.4-0.9-1.2-0.9L304.5,119.3z"/>
	<path class="st0" d="M326,137.8c-0.9,1.2-1.9,2.3-3,3.2c0,0.7-0.1,1-0.3,1c-0.3,0-0.8-0.7-1.5-2c1.6-0.9,2.9-1.8,3.8-2.6v-6.9h-3.5
		l-0.3-1.1h3.7l0.9-1c1.1,0.8,1.6,1.4,1.6,1.7c0,0.1-0.1,0.3-0.2,0.4l-0.5,0.4v5.9c0.8,1.1,2,1.9,3.6,2.4c1.8,0.5,4.3,0.8,7.8,0.8
		c2.1,0,4.4-0.1,7-0.3c-0.4,0.6-0.7,1.2-0.9,1.8h-5.9c-3.3,0-5.9-0.3-7.9-0.9C328.4,140.1,327,139.1,326,137.8z M322.6,119.6
		c2.7,1.5,4.1,2.9,4.1,4c0,0.4-0.2,0.7-0.5,0.9c-0.3,0.2-0.5,0.3-0.7,0.3s-0.4-0.2-0.5-0.6c-0.5-1.4-1.4-2.8-3-4L322.6,119.6z
		 M340.6,133.5h-4.1v2h4.8l1.2-1.3c0.6,0.5,1.2,1.1,1.8,1.7l-0.4,0.8h-7.4v2.4H335v-2.4h-7l-0.4-1.2h7.4v-2h-3.9v0.8h-1.5V126
		c0.6,0.2,1.2,0.4,1.7,0.7h3.7v-1.8h-5.7l-0.3-1c-0.2,0.1-0.3,0.1-0.5,0.1c-0.3,0-0.5-0.1-0.7-0.3c-0.2-0.2-0.3-0.4-0.3-0.6
		s0.1-0.4,0.4-0.6c0.9-0.9,1.4-2.1,1.6-3.4l1,0.3c0,0.1,0,0.2,0,0.3c0,0.1,0,0.2,0,0.4h11.4l0.8-0.9c1.2,1.1,1.8,1.8,1.8,2.1
		c0,0.2-0.2,0.3-0.5,0.4l-0.9,0.1c-0.7,0.6-1.2,0.9-1.5,1.2l-0.8-0.6c0.1-0.1,0.2-0.2,0.3-0.3c0.2-0.2,0.3-0.5,0.5-0.7h-11.3
		c-0.2,1.2-0.6,2.1-1.1,2.6h5.8v-2c1.7,0.1,2.5,0.3,2.5,0.7c0,0.2-0.3,0.4-1,0.7v0.7h4.1l0.9-0.7c0.5,0.3,1.1,0.6,1.7,1.1l-0.4,0.7
		h-6.3v1.8h3.9l0.8-0.8c1.1,0.8,1.7,1.3,1.7,1.5c0,0.1-0.1,0.2-0.2,0.3l-0.5,0.4v6.1h-1.5v-1H340.6z M335,129.4v-1.6h-3.9v1.6H335z
		 M335,132.3v-1.8h-3.9v1.8H335z M340.6,129.4v-1.6h-4.1v1.6H340.6z M340.6,132.3v-1.8h-4.1v1.8H340.6z"/>
	<path class="st0" d="M353.3,134.2c-1.2,0.8-2.1,1.7-2.7,2.5c-0.3,0.4-0.4,0.7-0.5,1c-0.2,0.8-0.6,1.3-1.1,1.3
		c-0.7,0-1.2-0.5-1.6-1.4c-0.3-0.7-0.4-1.5-0.4-2.4c0-0.7,0.1-1.5,0.3-2.5l1-0.2c0,0.3,0,0.5,0,0.7c0,1.2,0.1,2.1,0.4,2.7
		c0.1,0.3,0.3,0.4,0.4,0.4s0.3-0.1,0.5-0.3c0.9-0.8,2-1.6,3.3-2.5L353.3,134.2z M353,137.7c1.7,1,3.1,1.4,4.4,1.4
		c1.7,0,2.5-0.8,2.5-2.5c0-1.3-0.5-2.7-1.5-4.2c-0.9-1.3-1.5-2.2-1.8-2.7c-0.6-0.9-1-1.8-1.4-2.7l1-0.6c0.4,1,1,2,1.9,3.1
		c1.4,1.8,2.3,3.1,2.7,3.8c0.7,1.3,1,2.4,1,3.5c0,1.2-0.4,2.1-1.2,2.9c-0.8,0.7-1.7,1-2.9,1c-1.9,0-3.6-0.7-5.2-2.1L353,137.7z
		 M356.5,124c0.6-0.4,1.4-0.9,2.3-1.4c-0.8-0.2-1.4-0.5-1.9-0.8c-0.7-0.4-1.3-1.1-1.7-1.9l0.7-0.7c0.6,0.9,1.6,1.5,2.9,1.7
		c0.2,0,0.3,0,0.4,0.1c0.9,0.1,1.6,0.3,1.9,0.6c0.5,0.4,0.8,0.9,0.8,1.3s-0.3,0.6-0.8,0.6h-0.5c-0.7,0-1.8,0.4-3.3,1.1L356.5,124z
		 M362.7,130.2c1.7,0.5,3.3,1.2,4.7,2.3c0.4,0.3,0.8,0.8,1.2,1.2c0.6,0.7,0.9,1.5,0.9,2.1c0,0.3-0.1,0.6-0.2,0.8
		c-0.2,0.4-0.5,0.6-0.9,0.6c-0.3,0-0.6-0.3-0.9-0.8c-0.8-1.6-1.5-2.9-2.4-3.7c-0.7-0.7-1.7-1.3-2.9-1.7L362.7,130.2z M364.1,121.6
		c0.9,0.3,1.7,0.7,2.3,1.2c0.7,0.6,1,1.2,1,1.8c0,0.4-0.1,0.6-0.3,0.8c-0.2,0.1-0.3,0.2-0.5,0.2c-0.3,0-0.6-0.1-0.7-0.4
		c0,0-0.1-0.2-0.1-0.4c-0.3-1.1-1-1.9-2.1-2.6L364.1,121.6z M366.5,119.7c0.9,0.3,1.6,0.7,2.3,1.2c0.7,0.6,1.1,1.2,1.1,1.8
		c0,0.4-0.1,0.6-0.3,0.8c-0.2,0.1-0.3,0.2-0.5,0.2c-0.3,0-0.6-0.1-0.7-0.4c0,0-0.1-0.2-0.1-0.4c-0.3-1.1-1-1.9-2.1-2.5L366.5,119.7z
		"/>
	<path class="st0" d="M378,123h4.2v19.3h-9.5v-4.2h5.4V123H378z M379.1,124.1v15.1h-5.4v2h7.3v-17.1H379.1z"/>
</g>
<g>
	<path class="st14" d="M405,129.6h10.6v1.4H405V129.6z"/>
	<path class="st14" d="M438.3,134.9v7.3h-1.6v-6.9c-2.9,2.6-6.3,4.6-10.3,6l-0.6-1c3.7-1.3,6.9-3.2,9.6-5.9l0.2-0.1h-9l-0.3-1.2
		h10.5V131c1.6,0.1,2.4,0.3,2.4,0.7c0,0.2-0.3,0.4-0.9,0.6v0.8h7.5l1.3-1.2c0.6,0.4,1.3,0.9,2,1.6l-0.5,0.8h-9.5
		c3,2.5,6.5,4.2,10.4,5.2c-0.6,0.5-1.1,1.1-1.5,1.6c-2.6-1-5-2.3-7.1-4C439.9,136.4,439,135.6,438.3,134.9z M432.5,126.4v1.1
		c-1.2,1-2.6,2-4.3,3.1c-0.1,0.7-0.2,1.1-0.5,1.1c-0.4,0-0.8-0.7-1.4-2.2C428.5,128.7,430.6,127.7,432.5,126.4z M427.3,121.1
		c1.5,0.6,2.6,1.2,3.4,1.9c0.7,0.6,1,1.1,1,1.6c0,0.3-0.1,0.6-0.4,0.8c-0.3,0.2-0.5,0.3-0.7,0.3s-0.4-0.2-0.5-0.5
		c-0.6-1.3-1.7-2.4-3.3-3.4L427.3,121.1z M434.9,130.5v0.9h-1.5V121l0.3,0.1c0.4,0.2,0.8,0.3,1.1,0.4l0.3,0.1h1.1
		c0.4-1,0.6-2.1,0.7-3.1c1.7,0.3,2.6,0.6,2.6,0.9c0,0.2-0.3,0.4-1,0.5c-0.3,0.6-0.7,1.1-1.1,1.7h2.7l0.8-1c1.1,0.8,1.6,1.3,1.6,1.6
		c0,0.1-0.1,0.3-0.3,0.4l-0.5,0.3v8.2h-1.5v-0.8h-5.3V130.5z M434.9,125.4h5.3v-2.5h-5.3V125.4z M434.9,129.3h5.3v-2.7h-5.3V129.3z
		 M443,126.5c2.1,0.6,3.7,1.3,5,2.1c0.6,0.4,1,0.8,1,1.1c0,0.2-0.1,0.5-0.4,0.8s-0.5,0.5-0.7,0.5s-0.4-0.1-0.6-0.4
		c-1.1-1.2-2.7-2.4-4.8-3.4L443,126.5z M442.6,124.8c1.7-1.4,3.1-2.8,4.1-4.4c1.3,0.8,2,1.4,2,1.9c0,0.2-0.2,0.3-0.7,0.3
		c-0.2,0-0.4,0-0.6,0c-1.2,1-2.6,2-4.2,2.9L442.6,124.8z"/>
	<path class="st14" d="M463.8,129.8h-8.2l-0.4-1.2h8.8c0-0.4,0-0.8,0-1.1v-4.9h-9.7l-0.4-1.3h18.5l1.4-1.6c0.9,0.7,1.6,1.4,2.1,2
		l-0.5,0.9h-9.8v4.9c0,0.3,0,0.6,0,1.1h5.7l1.4-1.5c0.6,0.5,1.3,1.2,2,1.9l-0.5,0.8H466c0.7,1.7,1.5,3.1,2.3,4.2
		c2,2.6,4.8,4.4,8.4,5.5c-0.6,0.5-1.1,1-1.6,1.6c-5.1-2.2-8.4-5.6-9.9-10.3c-0.7,2.7-2.1,4.9-4.2,6.9c-1.8,1.6-4,2.8-6.8,3.8l-0.6-1
		c2.9-1.1,5.2-2.6,7-4.5C462.2,134.2,463.3,132.1,463.8,129.8z"/>
	<path class="st14" d="M491.3,123.2V119c1.9,0.1,2.8,0.3,2.8,0.7c0,0.2-0.4,0.5-1.2,0.8v2.7h7.4l1.4-1.7c0.8,0.7,1.5,1.4,2.2,2.1
		l-0.5,0.9h-22.6l-0.3-1.2h10.8V123.2z M492.9,129.4v12.8h-1.6v-12.8h-5.9v10.4h-1.6v-12.3c0.4,0.1,1,0.3,1.6,0.5l0.2,0.1h5.8v-3.6
		c1.7,0.3,2.6,0.6,2.6,0.9c0,0.2-0.3,0.3-0.9,0.5v2.2h5.9l0.9-1c1.2,0.9,1.7,1.5,1.7,1.8c0,0.1-0.1,0.2-0.2,0.3l-0.6,0.4v8.2
		c0,0.7-0.3,1.2-0.8,1.5c-0.5,0.2-1.1,0.4-1.8,0.4c0-0.3-0.1-0.5-0.2-0.6c-0.3-0.2-1.2-0.4-2.9-0.7v-1c0.8,0.1,1.7,0.1,2.7,0.1
		c0.7,0,1.1-0.1,1.2-0.2c0.1-0.1,0.1-0.2,0.1-0.5v-7.7h-6.2V129.4z"/>
	<path class="st14" d="M511.1,134.1v-7.6H508l-0.3-1.2h3.4v-6.2c1.7,0,2.6,0.3,2.6,0.7c0,0.2-0.3,0.5-1,0.8v4.8h1.1l1.1-1.4
		c0.6,0.6,1,1.2,1.4,1.8l-0.4,0.8h-3.2v6.9c1.4-0.7,2.6-1.4,3.5-1.9v1.2c-2,1.5-4.3,2.8-6.8,4.1c-0.1,0.7-0.3,1.1-0.5,1.1
		c-0.4,0-0.8-0.7-1.3-2.2C508.7,135.1,509.9,134.7,511.1,134.1z M526.5,133.3c-1.5,3.9-4.4,6.8-8.9,8.5l-0.6-0.9
		c1.5-0.7,2.8-1.4,3.8-2.2c1.8-1.4,3.1-3.2,4-5.4h-2.1c-1.5,2.8-4,4.9-7.5,6.3l-0.7-0.9c2-0.8,3.6-1.9,4.8-3.3
		c0.6-0.7,1.1-1.4,1.6-2.1h-2.2c-1.2,1.2-2.5,2.2-3.9,3l-0.7-0.8c2.2-1.3,3.9-3,5-5.1H515l-0.3-1.2h13.7l1.2-1.3
		c0.6,0.5,1.2,1.1,1.8,1.8l-0.4,0.8h-10.1c-0.3,0.6-0.7,1.2-1.1,1.8h8.3l0.9-1c1.1,0.8,1.6,1.3,1.6,1.6c0,0.1-0.1,0.3-0.2,0.4
		l-0.6,0.4c-0.1,3.8-0.6,6.3-1.4,7.4c-0.5,0.6-1.2,1-2.3,1.1c0-0.4-0.3-0.7-0.7-0.8c-0.4-0.1-1.1-0.2-2.2-0.4v-1
		c0.6,0.1,1.4,0.2,2.4,0.2c0.9,0,1.4-0.2,1.7-0.7c0.5-0.8,0.8-2.8,0.9-6h-1.7V133.3z M526.6,127.2H519v0.9h-1.5v-8.9
		c0.4,0.1,1,0.4,1.8,0.7h7.1l0.9-0.9c1.1,0.8,1.7,1.4,1.7,1.6c0,0.1-0.1,0.2-0.2,0.3l-0.6,0.4v6.7h-1.5L526.6,127.2L526.6,127.2z
		 M526.6,122.9v-1.8H519v1.8H526.6z M526.6,126.1v-2H519v2H526.6z"/>
	<path class="st14" d="M539.3,123.7v4.6c0,3.6-0.4,6.6-1.2,9.1c-0.5,1.7-1.3,3.3-2.4,4.7l-0.8-0.7c1.8-3.1,2.8-7.5,2.8-13.1v-6.5
		c0.4,0.1,1,0.4,1.9,0.8h6.6v-3.9c1.8,0,2.7,0.3,2.7,0.7c0,0.2-0.4,0.5-1.1,0.7v2.5h7.1l1.3-1.5c0.6,0.6,1.3,1.2,1.9,2l-0.4,0.7
		L539.3,123.7L539.3,123.7z M553.2,140.8h-10.8v1.3h-1.6v-9.4c0.4,0.1,1,0.3,1.8,0.7h4.2v-8.9c1.7,0.1,2.6,0.3,2.6,0.7
		c0,0.2-0.3,0.5-1,0.7v2.2h5.3l1.2-1.4c0.7,0.6,1.3,1.2,1.8,1.8l-0.5,0.8h-7.9v4h4.7l0.9-1c1.1,0.9,1.7,1.4,1.7,1.7
		c0,0.1-0.1,0.3-0.3,0.4l-0.6,0.4v7.2h-1.6L553.2,140.8L553.2,140.8z M553.2,139.6v-5h-10.8v5H553.2z"/>
	<path class="st14" d="M568.8,129.6h10.6v1.4h-10.6V129.6z"/>
</g>
</svg>
